<?xml version="1.0" encoding="UTF-8"?>
<svg xmlns="http://www.w3.org/2000/svg" xmlns:xlink="http://www.w3.org/1999/xlink" width="144px" height="256px" viewBox="0 0 144 256" version="1.1">
<g id="surface1">
<path style=" stroke:none;fill-rule:nonzero;fill:rgb(0%,0%,0%);fill-opacity:1;" d="M 38.378906 77.125 C 37.726562 77.351562 37.304688 77.65625 37.460938 77.8125 C 37.609375 77.96875 37.574219 78.078125 37.34375 78.078125 C 37.152344 78.078125 36.5 78.5 35.921875 79.039062 C 35.078125 79.804688 34.960938 80.148438 35.308594 80.535156 C 35.617188 80.917969 35.617188 81.148438 35.308594 81.339844 C 35.078125 81.453125 35 81.722656 35.117188 81.914062 C 35.308594 82.21875 32.46875 83.0625 31.203125 83.0625 C 30.359375 83.0625 29.515625 84.710938 29.976562 85.441406 C 30.164062 85.710938 30.203125 86.515625 30.089844 87.167969 C 29.78125 88.855469 30.242188 91.117188 30.859375 91.117188 C 31.203125 91.117188 31.394531 91.578125 31.394531 92.421875 C 31.394531 93.109375 31.585938 94.109375 31.855469 94.566406 C 32.085938 95.027344 32.316406 96.328125 32.316406 97.480469 C 32.316406 98.976562 32.46875 99.550781 32.851562 99.550781 C 33.160156 99.550781 33.390625 99.320312 33.390625 99.015625 C 33.390625 98.398438 35.460938 97.445312 36.039062 97.828125 C 36.269531 97.941406 36.726562 97.902344 37.113281 97.710938 C 37.609375 97.40625 37.496094 97.25 36.34375 96.828125 C 35.539062 96.5625 34.925781 96.21875 34.925781 96.0625 C 34.925781 95.90625 34.617188 95.679688 34.273438 95.5625 C 33.851562 95.410156 34.003906 95.71875 34.65625 96.292969 C 35.84375 97.367188 35.578125 97.59375 34.234375 96.636719 C 33.429688 96.101562 33.390625 96.101562 33.390625 96.90625 C 33.390625 98.132812 33.046875 97.632812 32.890625 96.179688 C 32.8125 95.523438 32.507812 94.71875 32.238281 94.375 C 31.96875 94.070312 31.855469 93.6875 32.007812 93.53125 C 32.125 93.417969 32.238281 93.492188 32.238281 93.726562 C 32.238281 93.992188 32.390625 94.183594 32.625 94.183594 C 32.8125 94.183594 32.929688 93.726562 32.851562 93.109375 C 32.773438 92.535156 32.8125 92.382812 32.890625 92.765625 C 33.234375 94.070312 35.539062 95.984375 37.460938 96.484375 C 38.492188 96.75 40.914062 97.023438 42.792969 97.058594 C 44.710938 97.058594 46.515625 97.25 46.785156 97.40625 C 47.476562 97.828125 46.976562 99.515625 45.863281 100.703125 C 45.019531 101.585938 44.136719 103.347656 44.136719 104.152344 C 44.136719 104.34375 44.484375 104.804688 44.90625 105.1875 C 45.632812 105.875 45.632812 105.914062 44.484375 106.414062 C 43.828125 106.683594 42.984375 107.449219 42.601562 108.101562 C 42.179688 108.753906 41.488281 109.328125 41.027344 109.40625 C 39.453125 109.632812 38.992188 107.757812 40.335938 106.414062 C 41.257812 105.492188 41.101562 105.226562 39.683594 105.070312 C 38.992188 104.996094 38.765625 105.109375 38.878906 105.453125 C 39.03125 105.839844 38.726562 105.953125 37.804688 105.953125 C 37.074219 105.914062 36.613281 105.761719 36.726562 105.570312 C 36.84375 105.417969 36.652344 104.957031 36.34375 104.613281 C 36.078125 104.265625 35.695312 103.65625 35.578125 103.269531 C 35.421875 102.925781 34.960938 102.617188 34.539062 102.617188 C 34.117188 102.617188 33.773438 102.429688 33.773438 102.195312 C 33.773438 102.007812 33.542969 101.929688 33.3125 102.082031 C 32.929688 102.273438 32.929688 102.234375 33.273438 101.851562 C 33.65625 101.46875 33.851562 101.429688 34.3125 101.8125 C 35 102.390625 35.308594 101.890625 34.886719 100.78125 C 34.617188 100.085938 34.390625 99.972656 33.507812 100.164062 C 32.890625 100.28125 32.238281 100.664062 32.007812 100.929688 C 30.933594 102.273438 29.820312 101.238281 28.976562 97.980469 C 28.632812 96.636719 28.25 95.257812 28.171875 94.953125 C 28.054688 94.605469 27.632812 95.027344 27.019531 96.101562 C 26.484375 97.058594 25.867188 97.867188 25.675781 97.941406 C 25.484375 98.015625 25.328125 98.4375 25.328125 98.820312 C 25.328125 99.242188 25.523438 99.476562 25.714844 99.359375 C 26.367188 98.9375 26.136719 100.394531 25.445312 100.890625 C 24.601562 101.507812 25.0625 102.773438 26.0625 102.429688 C 26.671875 102.234375 26.828125 102.503906 27.09375 104.226562 C 27.289062 105.34375 27.441406 106.605469 27.441406 107.027344 C 27.480469 107.449219 27.632812 108.640625 27.824219 109.710938 C 28.015625 110.746094 28.210938 111.78125 28.25 112.011719 C 28.398438 113.316406 29.359375 116.039062 29.628906 116.039062 C 30.472656 116.039062 29.359375 118.148438 26.867188 121.289062 L 24.101562 124.742188 L 20.1875 126.160156 C 18.078125 126.964844 13.96875 128.6875 11.132812 130.03125 C 8.289062 131.335938 4.605469 132.90625 2.953125 133.484375 L 0 134.554688 L 0 255.59375 L 100.554688 255.59375 L 100.554688 250.460938 C 100.554688 244.976562 100.820312 242.828125 101.4375 243.058594 C 101.976562 243.210938 103.203125 248.578125 103.546875 252.296875 L 103.816406 255.40625 L 116.519531 255.519531 L 129.226562 255.59375 L 129.300781 247.277344 C 129.414062 234.625 128.148438 224.195312 124.578125 208.628906 C 123.046875 201.921875 122.773438 197.28125 122.851562 180.640625 C 122.929688 164.039062 122.851562 163.351562 120.742188 157.675781 C 119.207031 153.609375 116.289062 148.28125 114.296875 145.90625 C 113.296875 144.679688 111.375 142.914062 110.03125 141.953125 C 107.695312 140.269531 94.757812 133.558594 87.429688 130.1875 C 83.898438 128.574219 76.605469 123.703125 74.953125 121.867188 C 73.882812 120.679688 73.84375 120.21875 74.839844 119.375 C 75.261719 119.03125 75.609375 118.414062 75.609375 118.03125 C 75.609375 117.648438 75.992188 116.574219 76.453125 115.617188 C 76.914062 114.695312 77.335938 113.238281 77.414062 112.394531 C 77.488281 111.554688 77.601562 110.054688 77.679688 109.0625 C 77.757812 108.101562 77.910156 107.140625 77.984375 106.953125 C 78.0625 106.796875 78.179688 104.648438 78.21875 102.234375 C 78.296875 97.058594 78.0625 97.367188 75.992188 105.304688 C 75.648438 106.53125 74.992188 107.5625 73.648438 108.828125 C 72.613281 109.867188 71.617188 110.671875 71.421875 110.671875 C 71.195312 110.671875 71.117188 110.976562 71.273438 111.320312 C 71.460938 111.898438 71.386719 111.859375 70.886719 111.246094 C 70.3125 110.476562 70.273438 110.476562 69.890625 111.554688 C 69.65625 112.125 68.8125 113.277344 68.007812 114.046875 C 67.203125 114.851562 66.398438 116 66.242188 116.613281 C 65.976562 117.609375 64.859375 119.066406 63.25 120.5625 C 62.867188 120.90625 62.558594 121.519531 62.558594 121.90625 C 62.558594 122.515625 62.445312 122.554688 61.984375 122.171875 C 61.367188 121.671875 60.640625 121.941406 60.640625 122.710938 C 60.640625 122.976562 60.140625 123.207031 59.449219 123.207031 C 58.796875 123.207031 58.109375 123.4375 57.914062 123.742188 C 57.722656 124.050781 57.570312 124.125 57.570312 123.9375 C 57.570312 123.742188 57.300781 123.820312 56.992188 124.089844 C 56.492188 124.472656 56.417969 124.433594 56.417969 123.742188 C 56.417969 123.320312 56.226562 122.976562 55.996094 123.054688 C 55.765625 123.09375 55.496094 122.9375 55.421875 122.75 C 55.265625 122.328125 57.300781 121.023438 58.070312 121.023438 C 58.335938 121.023438 58.71875 120.640625 58.914062 120.179688 C 59.140625 119.71875 59.601562 119.296875 59.984375 119.257812 C 60.867188 119.140625 61.179688 118.875 60.90625 118.453125 C 60.792969 118.261719 59.375 118.148438 57.761719 118.1875 C 56.1875 118.1875 53.882812 117.992188 52.734375 117.726562 C 50.238281 117.148438 49.507812 116.726562 51.621094 117.070312 C 53.347656 117.34375 53.234375 116.765625 51.429688 116.039062 C 50.007812 115.460938 50.007812 115.15625 51.273438 114.3125 C 52.042969 113.8125 52.734375 113.699219 53.960938 113.890625 C 55.726562 114.121094 56.34375 113.738281 55.535156 112.894531 C 55.226562 112.625 55.074219 112.164062 55.152344 111.9375 C 55.265625 111.667969 54.84375 111.320312 54.230469 111.207031 C 53.195312 110.898438 53.195312 110.898438 54.882812 110.476562 C 55.84375 110.210938 56.800781 110.132812 56.992188 110.25 C 57.226562 110.363281 58.070312 110.515625 58.914062 110.515625 C 59.757812 110.554688 61.179688 110.59375 62.097656 110.632812 C 62.980469 110.632812 63.710938 110.859375 63.710938 111.09375 C 63.710938 111.320312 63.367188 111.398438 62.867188 111.246094 C 62.175781 111.054688 62.097656 111.09375 62.558594 111.398438 C 63.054688 111.78125 63.054688 111.859375 62.558594 112.203125 C 62.25 112.394531 61.675781 112.585938 61.328125 112.585938 C 60.945312 112.585938 60.640625 112.78125 60.640625 113.007812 C 60.640625 113.316406 61.214844 113.390625 62.484375 113.203125 C 63.480469 113.046875 64.707031 112.894531 65.246094 112.855469 C 65.9375 112.816406 66.164062 112.585938 66.089844 112.050781 C 65.976562 111.554688 66.128906 111.398438 66.550781 111.554688 C 66.933594 111.703125 67.320312 111.515625 67.546875 111.054688 C 68.046875 110.09375 68.046875 109.789062 67.433594 110.015625 C 67.164062 110.132812 66.742188 109.75 66.472656 109.175781 C 66.015625 108.179688 65.515625 107.796875 62.867188 106.605469 C 61.140625 105.839844 61.0625 105.570312 62.40625 104.996094 C 62.945312 104.726562 63.25 104.34375 63.132812 104.152344 C 62.828125 103.65625 60.257812 103.65625 60.257812 104.152344 C 60.257812 104.996094 58.375 104.957031 56.53125 104.113281 C 55.1875 103.460938 53.960938 103.234375 51.890625 103.195312 C 48.898438 103.15625 48.164062 102.734375 48.585938 101.277344 C 48.933594 100.164062 50.238281 99.054688 50.890625 99.320312 C 51.160156 99.4375 51.429688 99.359375 51.429688 99.167969 C 51.429688 98.9375 51.234375 98.785156 51.046875 98.785156 C 50.773438 98.785156 50.773438 98.554688 51.046875 98.054688 C 51.234375 97.632812 51.429688 97.058594 51.429688 96.75 C 51.429688 96.445312 52.003906 95.296875 52.734375 94.222656 C 53.460938 93.1875 54.34375 91.421875 54.691406 90.351562 C 55.882812 86.78125 58.070312 87.511719 59.679688 92 C 60.0625 92.996094 60.90625 94.453125 61.601562 95.140625 C 62.25 95.871094 62.75 96.523438 62.710938 96.601562 C 62.632812 96.675781 62.867188 96.714844 63.25 96.714844 C 63.59375 96.714844 65.28125 96.828125 66.933594 97.023438 C 70.464844 97.40625 74.417969 96.867188 76.296875 95.71875 C 77.71875 94.835938 78.484375 93.453125 79.214844 90.390625 C 79.523438 89.125 80.210938 87.511719 80.75 86.78125 C 81.554688 85.75 81.671875 85.367188 81.289062 85.058594 C 80.671875 84.5625 76.71875 83.832031 74.609375 83.832031 C 73.6875 83.832031 72.84375 83.640625 72.726562 83.449219 C 72.117188 82.453125 61.984375 83.335938 59.527344 84.601562 C 58.679688 85.019531 57.53125 85.367188 56.992188 85.367188 C 55.574219 85.367188 53.347656 84.367188 53.347656 83.71875 C 53.347656 83.410156 52.539062 82.757812 51.582031 82.296875 C 50.351562 81.761719 49.929688 81.339844 50.164062 81.109375 C 50.429688 80.84375 50.429688 80.34375 50.164062 79.617188 C 49.855469 78.773438 49.320312 78.425781 47.628906 77.890625 C 44.828125 77.007812 39.914062 76.585938 38.378906 77.125 Z M 47.132812 81.835938 C 48.015625 82.296875 48.742188 82.757812 48.742188 82.875 C 48.742188 83.027344 42.984375 82.757812 40.492188 82.453125 C 39.300781 82.335938 38.914062 82.109375 38.878906 81.53125 C 38.800781 80.878906 39.070312 80.84375 42.140625 80.917969 C 44.710938 80.957031 45.863281 81.1875 47.132812 81.835938 Z M 37.996094 81.53125 C 37.996094 81.992188 37.6875 81.992188 36.652344 81.53125 C 35.960938 81.226562 36 81.1875 36.960938 81.1875 C 37.535156 81.148438 37.996094 81.300781 37.996094 81.53125 Z M 50.203125 84.675781 C 51.507812 85.058594 51.929688 86.132812 50.773438 86.132812 C 50.390625 86.132812 49.507812 85.789062 48.820312 85.367188 C 48.128906 84.945312 47.207031 84.601562 46.707031 84.601562 C 46.054688 84.601562 45.976562 84.675781 46.398438 84.945312 C 46.785156 85.171875 46.363281 85.25 45.25 85.132812 C 44.328125 85.019531 43.179688 84.90625 42.71875 84.90625 C 42.0625 84.90625 41.984375 84.789062 42.332031 84.367188 C 42.832031 83.757812 47.898438 83.945312 50.203125 84.675781 Z M 75.492188 84.636719 C 78.445312 85.132812 78.867188 85.710938 78.5625 88.777344 C 78.21875 92 77.449219 93.875 76.03125 94.835938 C 74.417969 95.945312 69.890625 96.367188 65.820312 95.796875 C 63.25 95.410156 62.632812 95.179688 61.90625 94.296875 C 60.601562 92.6875 59.679688 87.320312 60.601562 86.746094 C 60.945312 86.515625 62.175781 89.125 62.175781 90.042969 C 62.175781 90.65625 63.710938 92.265625 64.324219 92.265625 C 64.554688 92.265625 64.976562 92 65.246094 91.691406 C 65.515625 91.382812 66.050781 91.117188 66.472656 91.117188 C 67.125 91.117188 67.164062 91 66.78125 90.539062 C 66.511719 90.234375 65.898438 89.96875 65.398438 89.96875 C 64.398438 89.96875 63.59375 88.816406 63.9375 87.898438 C 64.285156 87.054688 65.132812 87.128906 65.4375 88.046875 C 65.742188 89.007812 66.972656 89.695312 67.855469 89.429688 C 68.238281 89.3125 68.773438 88.777344 69.121094 88.242188 L 69.695312 87.242188 L 70.734375 88.046875 C 71.308594 88.507812 71.695312 89.046875 71.578125 89.238281 C 71.421875 89.429688 71.578125 89.582031 71.882812 89.582031 C 72.191406 89.582031 73.382812 88.742188 74.492188 87.664062 L 76.566406 85.789062 L 74.839844 85.75 C 73.882812 85.710938 72.5 85.40625 71.769531 84.984375 L 70.425781 84.253906 L 71.730469 84.214844 C 72.460938 84.214844 74.148438 84.40625 75.492188 84.636719 Z M 70.195312 85.019531 C 70.847656 85.25 71.386719 85.671875 71.386719 85.976562 C 71.386719 86.4375 71.15625 86.4375 69.96875 85.902344 C 69.160156 85.554688 68.316406 85.25 68.046875 85.210938 C 67.777344 85.171875 67.433594 85.019531 67.320312 84.867188 C 66.898438 84.445312 68.851562 84.5625 70.195312 85.019531 Z M 47.28125 87.320312 C 47.859375 87.625 47.976562 87.972656 47.820312 88.664062 C 47.667969 89.238281 47.742188 89.582031 48.050781 89.582031 C 48.398438 89.582031 48.398438 89.695312 48.050781 90.042969 C 47.820312 90.273438 46.820312 90.539062 45.824219 90.578125 C 43.328125 90.734375 43.214844 91.117188 45.710938 91.117188 L 47.78125 91.15625 L 46.132812 91.730469 C 44.25 92.382812 41.414062 92.304688 41.140625 91.578125 C 41.066406 91.308594 41.375 91.117188 41.984375 91.117188 C 42.484375 91.117188 43.0625 90.925781 43.179688 90.734375 C 43.292969 90.503906 43.179688 90.351562 42.90625 90.351562 C 41.871094 90.351562 39.914062 88.855469 40.144531 88.242188 C 40.414062 87.625 41.449219 87.4375 41.449219 88.046875 C 41.449219 88.242188 41.871094 88.703125 42.371094 89.007812 C 43.5625 89.8125 45.171875 89.199219 45.515625 87.859375 C 45.789062 86.78125 46.09375 86.707031 47.28125 87.320312 Z M 35.039062 92.460938 C 35.15625 93.03125 35.234375 92.917969 35.273438 92.113281 C 35.308594 91.15625 35.386719 91.078125 35.960938 91.539062 C 36.382812 91.921875 36.5 91.921875 36.304688 91.578125 C 36.15625 91.34375 36.191406 91.117188 36.382812 91.117188 C 36.613281 91.117188 36.84375 91.382812 37 91.691406 C 37.113281 92 37.609375 92.265625 38.070312 92.265625 C 38.726562 92.265625 38.800781 92.382812 38.417969 92.609375 C 37.996094 92.882812 38.03125 92.996094 38.648438 93.1875 C 39.835938 93.570312 44.25 93.53125 45.328125 93.109375 C 45.863281 92.882812 46.9375 92.726562 47.703125 92.726562 C 49.007812 92.726562 49.125 92.804688 48.898438 93.53125 C 48.78125 93.992188 48.28125 94.679688 47.820312 95.066406 C 47.132812 95.679688 46.476562 95.757812 42.601562 95.601562 C 36.539062 95.335938 34.15625 94.222656 34.15625 91.617188 C 34.15625 90.8125 34.773438 91.421875 35.039062 92.460938 Z M 40.71875 110.746094 C 40.71875 111.589844 40.757812 111.589844 41.101562 110.859375 C 41.414062 110.171875 41.414062 110.171875 41.335938 111.054688 C 41.21875 112.359375 40.222656 112.28125 40.03125 110.9375 C 39.953125 110.363281 40.070312 109.90625 40.296875 109.90625 C 40.492188 109.90625 40.679688 110.289062 40.71875 110.746094 Z M 42.679688 113.429688 C 42.410156 113.699219 42.21875 113.738281 42.21875 113.507812 C 42.21875 112.96875 42.679688 112.507812 42.945312 112.78125 C 43.023438 112.894531 42.90625 113.203125 42.679688 113.429688 Z M 49.320312 114.964844 C 49.507812 115.15625 49.507812 115.421875 49.242188 115.695312 C 48.898438 116.039062 48.472656 115.921875 47.628906 115.273438 C 46.976562 114.8125 46.515625 114.273438 46.632812 114.121094 C 46.859375 113.773438 48.550781 114.3125 49.320312 114.964844 Z M 44.136719 115.078125 C 44.136719 115.386719 43.984375 115.65625 43.75 115.65625 C 43.5625 115.65625 43.367188 115.386719 43.367188 115.078125 C 43.367188 114.773438 43.5625 114.503906 43.75 114.503906 C 43.984375 114.503906 44.136719 114.773438 44.136719 115.078125 Z M 52.3125 121.136719 C 53.273438 121.484375 53.117188 122.09375 52.117188 122.019531 C 51.582031 121.980469 51.273438 121.75 51.351562 121.445312 C 51.429688 121.136719 51.234375 121.023438 50.890625 121.136719 C 50.546875 121.289062 50.203125 121.210938 50.085938 121.023438 C 49.855469 120.640625 51.121094 120.292969 51.429688 120.640625 C 51.542969 120.792969 51.929688 120.984375 52.3125 121.136719 Z M 70.390625 129.992188 C 70.078125 131.835938 69.46875 134.25 69.046875 135.320312 C 68.125 137.699219 65.9375 142.226562 65.554688 142.492188 C 65.398438 142.609375 65.09375 143.144531 64.859375 143.640625 C 64.054688 145.445312 62.136719 148.242188 61.675781 148.242188 C 61.601562 148.242188 59.796875 147.132812 57.722656 145.75 C 55.648438 144.371094 52.925781 142.722656 51.65625 142.109375 C 48.625 140.652344 47.015625 139.3125 47.320312 138.507812 C 47.515625 138.007812 48.742188 137.699219 49.929688 137.8125 C 51.734375 138.046875 56.570312 137.890625 56.765625 137.625 C 56.878906 137.390625 57.953125 137.125 59.140625 137.007812 C 60.332031 136.859375 61.789062 136.511719 62.40625 136.203125 C 63.671875 135.515625 65.820312 133.523438 66.664062 132.257812 C 66.972656 131.796875 67.433594 131.375 67.703125 131.375 C 68.203125 131.375 69.3125 129.839844 69.160156 129.34375 C 69.046875 128.960938 70.65625 126.273438 70.847656 126.503906 C 70.925781 126.582031 70.734375 128.15625 70.390625 129.992188 Z M 70.390625 129.992188 "/>
<path style=" stroke:none;fill-rule:nonzero;fill:rgb(0%,0%,0%);fill-opacity:1;" d="M 67.929688 77.273438 C 66.320312 77.621094 63.710938 78.808594 63.710938 79.230469 C 63.710938 79.421875 63.59375 79.84375 63.441406 80.226562 C 63.210938 80.84375 63.441406 80.878906 66.242188 80.609375 C 67.890625 80.457031 70.539062 80.304688 72.078125 80.265625 C 74.992188 80.1875 75.261719 80 74.226562 78.539062 C 73.574219 77.621094 72.34375 77.429688 72 78.15625 C 71.882812 78.5 71.578125 78.386719 71.078125 77.773438 C 70.273438 76.890625 70.078125 76.851562 67.929688 77.273438 Z M 67.929688 77.273438 "/>
<path style=" stroke:none;fill-rule:nonzero;fill:rgb(0%,0%,0%);fill-opacity:1;" d="M 25.714844 81.265625 C 25.714844 81.570312 26.558594 82.296875 27.632812 82.835938 C 29.820312 83.984375 30.242188 84.0625 29.554688 83.257812 C 29.28125 82.949219 28.898438 82.679688 28.707031 82.679688 C 28.515625 82.679688 27.75 82.21875 27.019531 81.6875 C 26.0625 80.917969 25.714844 80.804688 25.714844 81.265625 Z M 25.714844 81.265625 "/>
<path style=" stroke:none;fill-rule:nonzero;fill:rgb(0%,0%,0%);fill-opacity:1;" d="M 24.179688 82.71875 C 24.867188 83.984375 25.828125 84.945312 26.175781 84.75 C 26.671875 84.445312 26.519531 83.984375 25.523438 82.914062 C 24.371094 81.6875 23.5625 81.570312 24.179688 82.71875 Z M 24.179688 82.71875 "/>
<path style=" stroke:none;fill-rule:nonzero;fill:rgb(0%,0%,0%);fill-opacity:1;" d="M 21.722656 84.484375 C 21.414062 86.476562 21.492188 89.621094 21.875 90.539062 C 22.222656 91.382812 22.144531 91.5 23.179688 88.085938 C 23.984375 85.367188 23.949219 84.90625 22.875 83.871094 L 21.992188 83.027344 Z M 21.722656 84.484375 "/>
<path style=" stroke:none;fill-rule:nonzero;fill:rgb(0%,0%,0%);fill-opacity:1;" d="M 24.5625 89.96875 C 23.757812 90.925781 23.640625 91.382812 23.757812 93.109375 C 23.835938 94.492188 24.140625 95.375 24.71875 95.984375 C 25.789062 97.136719 26.671875 97.136719 26.289062 95.984375 C 25.675781 93.992188 25.675781 93.453125 26.328125 92.039062 C 27.019531 90.390625 27.289062 89.125 26.828125 89.429688 C 26.671875 89.507812 26.445312 89.429688 26.289062 89.199219 C 25.945312 88.625 25.636719 88.777344 24.5625 89.96875 Z M 24.5625 89.96875 "/>
<path style=" stroke:none;fill-rule:nonzero;fill:rgb(0%,0%,0%);fill-opacity:1;" d="M 77.984375 96.867188 C 77.984375 97.40625 78.0625 97.59375 78.179688 97.328125 C 78.257812 97.097656 78.257812 96.636719 78.179688 96.367188 C 78.0625 96.140625 77.984375 96.328125 77.984375 96.867188 Z M 77.984375 96.867188 "/>
<path style=" stroke:none;fill-rule:nonzero;fill:rgb(0%,0%,0%);fill-opacity:1;" d="M 69.621094 108.21875 C 69.734375 108.523438 69.851562 109.136719 69.851562 109.558594 C 69.851562 109.941406 70.042969 110.289062 70.234375 110.289062 C 70.886719 110.289062 70.65625 108.101562 70.003906 107.832031 C 69.542969 107.640625 69.429688 107.757812 69.621094 108.21875 Z M 69.621094 108.21875 "/>
<path style=" stroke:none;fill-rule:nonzero;fill:rgb(0%,0%,0%);fill-opacity:1;" d="M 57.109375 113.238281 C 57.375 113.351562 57.722656 113.316406 57.835938 113.203125 C 57.992188 113.085938 57.761719 112.96875 57.339844 113.007812 C 56.914062 113.007812 56.800781 113.125 57.109375 113.238281 Z M 57.109375 113.238281 "/>
</g>
</svg>
